# xmcd CD database file
#
# Track frame offsets:
#	150
#	13241
#	29742
#	47574
#	75879
#	90483
#	118352
#	134107
#	147491
#	168344
#	193119
#	209186
#
# Disc length: 3241 seconds
#
# Revision: 0
# Processed by: cddbd v1.5.2PL0 Copyright (c) Steve Scherf et al.
# Submitted via: CDex 1.70beta2
#
DISCID=b60ca70c
DTITLE=Eda Zari - Lazy Standards
DYEAR=1997
DGENRE=Jazz
TTITLE0=IT WAS THE MOON
TTITLE1=THE MORNING LIGHT
TTITLE2=LITTLE THINGS
TTITLE3=LAST SESSION
TTITLE4=LITTLE POT OF SUGAR
TTITLE5=IN THE CORNER
TTITLE6=ALHAMBRA
TTITLE7=NOTHING
TTITLE8=WHAT A BLUES
TTITLE9=THE OUTER SPACE
TTITLE10=CHARLIE
TTITLE11=JOE'S NO BLUES
EXTD=YEAR: 1997
EXTT0=
EXTT1=
EXTT2=
EXTT3=
EXTT4=
EXTT5=
EXTT6=
EXTT7=
EXTT8=
EXTT9=
EXTT10=
EXTT11=
PLAYORDER=
